<?xml version="1.0" encoding="UTF-8" standalone="no"?>
<svg
   xmlns:dc="http://purl.org/dc/elements/1.1/"
   xmlns:cc="http://creativecommons.org/ns#"
   xmlns:rdf="http://www.w3.org/1999/02/22-rdf-syntax-ns#"
   xmlns:svg="http://www.w3.org/2000/svg"
   xmlns="http://www.w3.org/2000/svg"
   version="1.1"
   id="svg9743"
   viewBox="0 0 716.37499 128.65039"
   height="36.307999mm"
   width="202.17694mm">
  <defs
     id="defs9745" />
  <metadata
     id="metadata9748">
    <rdf:RDF>
      <cc:Work
         rdf:about="">
        <dc:format>image/svg+xml</dc:format>
        <dc:type
           rdf:resource="http://purl.org/dc/dcmitype/StillImage" />
        <dc:title></dc:title>
      </cc:Work>
    </rdf:RDF>
  </metadata>
  <g
     transform="translate(-193.50391,-180.93164)"
     id="layer1">
    <path
       id="path10296"
       d="m 259.01562,181.93164 c -18.04687,0 -33.28125,5.83007 -45.70312,17.49024 -12.53906,11.66015 -18.80859,27.01172 -18.80859,46.05468 0,12.59766 3.10547,23.96484 9.3164,34.10156 6.15235,10.3125 14.88282,17.69532 26.19141,22.14844 11.25,4.57032 23.75976,6.85547 37.5293,6.85547 9.25781,0 17.92969,-1.46484 26.01562,-4.39453 8.08594,-2.92969 14.9707,-7.58789 20.6543,-13.97461 5.80078,-6.44531 9.60937,-12.80274 11.42578,-19.07227 1.875,-6.5039 2.8125,-16.43554 2.8125,-29.79492 l -54.66797,0 0,23.20313 12.48047,0 c 0,11.01562 -5.50781,16.52344 -16.52344,16.52344 -7.26563,0 -12.80273,-2.43164 -16.61133,-7.29493 -3.75,-4.80468 -5.625,-13.91601 -5.625,-27.33398 0,-13.47656 1.78711,-22.73437 5.36133,-27.77344 3.63281,-5.03906 9.31641,-7.55859 17.05078,-7.55859 5.50782,0 10.3125,1.34765 14.41406,4.04297 4.16016,2.69531 7.5293,6.67969 10.10743,11.95312 l 29.44336,0 0,-42.71484 -29.44336,0 0,8.52539 c -8.55469,-7.32422 -20.36133,-10.98633 -35.41993,-10.98633 z m 86.48438,2.46094 0,29.26758 9.93164,0 0,63.7207 -9.93164,0 0,29.26758 66.44531,0 0,-29.26758 -9.22851,0 0,-20.6543 15.02929,0 26.63086,49.92188 44.03321,0 0,-29.26758 -8.78907,0 -16.875,-27.94922 c 5.33204,-2.40234 9.63867,-6.15234 12.91993,-11.25 3.28124,-5.15625 4.92187,-10.89844 4.92187,-17.22656 0,-8.4375 -2.69531,-15.76172 -8.08594,-21.97266 -5.33202,-6.09374 -12.27539,-10.04883 -20.83007,-11.86523 -3.04689,-0.64454 -6.38672,-1.14258 -10.01954,-1.49414 -3.6328,-0.41016 -7.99804,-0.70313 -13.0957,-0.87891 -5.09765,-0.23437 -10.63476,-0.35156 -16.61133,-0.35156 l -66.44531,0 z m 153.7207,0 0,29.26758 9.66797,0 0,63.7207 -9.49219,0 0,29.26758 116.63086,0 0,-39.11133 -32.08007,0 0,9.84375 -27.77344,0 0,-20.03906 24.16992,0 0,-24.87305 -24.16992,0 0,-18.80859 27.77344,0 0,9.84375 32.08007,0 0,-39.11133 -116.80664,0 z m 135,0 0,29.26758 9.66797,0 0,63.7207 -9.49219,0 0,29.26758 116.63086,0 0,-39.11133 -32.08007,0 0,9.84375 -27.77344,0 0,-20.03906 24.16992,0 0,-24.87305 -24.16992,0 0,-18.80859 27.77344,0 0,9.84375 32.08007,0 0,-39.11133 -116.80664,0 z m 132.89063,0 0,29.26758 10.72265,0 0,63.7207 -10.72265,0 0,29.26758 50.18555,0 0,-29.26758 -10.81055,0 0,-43.06641 51.5039,73.91602 40.25391,0 0,-94.57031 10.63477,0 0,-29.26758 -49.30664,0 0,29.26758 9.93164,0 0,34.6289 -44.47266,-63.89648 -57.91992,0 z m -364.39453,26.80664 4.30664,0 c 7.14843,0 12.07031,0.20508 14.76562,0.61523 2.8125,0.41016 5.12696,1.58203 6.94336,3.51563 1.81641,1.875 2.72461,4.39453 2.72461,7.55859 0,3.16407 -0.9082,5.6543 -2.72461,7.47071 -1.8164,1.93359 -4.04297,3.10547 -6.67969,3.51562 -2.46094,0.41016 -7.14844,0.61523 -14.0625,0.61523 l -5.27343,0 0,-23.29101 z"
       style="font-style:normal;font-variant:normal;font-weight:800;font-stretch:normal;font-size:180px;line-height:125%;font-family:'Rockwell Extra Bold';-inkscape-font-specification:'Rockwell Extra Bold, Ultra-Bold';letter-spacing:0px;word-spacing:0px;fill:#000000;fill-opacity:1;stroke:#fdf253;stroke-width:2;stroke-linecap:butt;stroke-linejoin:miter;stroke-miterlimit:4;stroke-dasharray:none;stroke-opacity:1" />
  </g>
</svg>
