<?xml version="1.0" encoding="UTF-8" standalone="no"?>
<svg
   xmlns:dc="http://purl.org/dc/elements/1.1/"
   xmlns:cc="http://creativecommons.org/ns#"
   xmlns:rdf="http://www.w3.org/1999/02/22-rdf-syntax-ns#"
   xmlns:svg="http://www.w3.org/2000/svg"
   xmlns="http://www.w3.org/2000/svg"
   version="1.1"
   id="svg8631"
   viewBox="0 0 844.16799 125.83789"
   height="35.514248mm"
   width="238.24297mm">
  <defs
     id="defs8633" />
  <metadata
     id="metadata8636">
    <rdf:RDF>
      <cc:Work
         rdf:about="">
        <dc:format>image/svg+xml</dc:format>
        <dc:type
           rdf:resource="http://purl.org/dc/dcmitype/StillImage" />
        <dc:title></dc:title>
      </cc:Work>
    </rdf:RDF>
  </metadata>
  <g
     transform="translate(-17.986328,-103.39258)"
     id="layer1">
    <path
       id="path9184"
       d="m 18.986328,104.39258 0,29.26758 9.667969,0 0,63.7207 -9.404297,0 0,29.26758 47.373047,0 0,-29.26758 -9.667969,0 0,-67.41211 36.5625,96.67969 18.281252,0 36.91406,-97.5586 0,68.29102 -9.75586,0 0,29.26758 63.80859,0 0,-29.26758 -9.84374,0 0,-63.7207 9.58007,0 0,-29.26758 -73.30078,0 -18.45703,47.19726 -18.017578,-47.19726 -73.740234,0 z m 215.507812,0 0,29.26758 9.84375,0 -22.93945,63.7207 -9.31641,0 0,29.26758 48.42774,0 0,-26.80664 -10.01954,0 5.36133,-15.38086 31.28906,0 4.65821,15.38086 -10.72266,0 0,26.80664 63.8086,0 0,-29.26758 -8.96485,0 -23.3789,-63.7207 9.84375,0 0,-29.26758 -87.89063,0 z m 120.23438,0 0,29.26758 9.93164,0 0,63.7207 -9.93164,0 0,29.26758 66.44531,0 0,-29.26758 -9.22852,0 0,-20.6543 15.0293,0 26.63086,49.92188 44.0332,0 0,-29.26758 -8.78906,0 -16.875,-27.94922 c 5.33203,-2.40234 9.63867,-6.15234 12.91992,-11.25 3.28125,-5.15625 4.92188,-10.89844 4.92188,-17.22656 0,-8.4375 -2.69532,-15.76172 -8.08594,-21.97266 -5.33203,-6.09374 -12.27539,-10.04883 -20.83008,-11.86523 -3.04688,-0.64454 -6.38672,-1.14258 -10.01953,-1.49414 -3.63281,-0.41016 -7.99804,-0.70313 -13.0957,-0.87891 -5.09766,-0.23437 -10.63477,-0.35156 -16.61133,-0.35156 l -66.44531,0 z m 148.00781,0 0,51.5039 22.93945,0 0,-22.23632 14.0625,0 0,63.7207 -10.54687,0 0,29.26758 68.64257,0 0,-29.26758 -10.81054,0 0,-63.7207 13.97461,0 0,22.23632 22.93945,0 0,-51.5039 -121.20117,0 z m 134.47265,0 0,29.26758 11.25,0 0,63.7207 -11.25,0 0,29.26758 69.69727,0 0,-29.26758 -11.16211,0 0,-63.7207 11.16211,0 0,-29.26758 -69.69727,0 z m 82.17774,0 0,29.26758 10.72266,0 0,63.7207 -10.72266,0 0,29.26758 50.18555,0 0,-29.26758 -10.81055,0 0,-43.06641 51.5039,73.91602 40.25391,0 0,-94.57031 10.63477,0 0,-29.26758 -49.30664,0 0,29.26758 9.93164,0 0,34.6289 -44.47266,-63.89648 -57.91992,0 z m -307.44141,26.80664 4.30664,0 c 7.14844,0 12.07032,0.20508 14.76563,0.61523 2.8125,0.41016 5.12695,1.58203 6.94336,3.51563 1.8164,1.875 2.72461,4.39453 2.72461,7.55859 0,3.16407 -0.90821,5.6543 -2.72461,7.47071 -1.81641,1.93359 -4.04298,3.10547 -6.67969,3.51562 -2.46094,0.41016 -7.14844,0.61523 -14.0625,0.61523 l -5.27344,0 0,-23.29101 z m -139.92187,4.21875 10.37109,33.83789 -21.88476,0 11.51367,-33.83789 z"
       style="font-style:normal;font-variant:normal;font-weight:800;font-stretch:normal;font-size:180px;line-height:125%;font-family:'Rockwell Extra Bold';-inkscape-font-specification:'Rockwell Extra Bold, Ultra-Bold';letter-spacing:0px;word-spacing:0px;fill:#000000;fill-opacity:1;stroke:#fdf253;stroke-width:2;stroke-linecap:butt;stroke-linejoin:miter;stroke-miterlimit:4;stroke-dasharray:none;stroke-opacity:1" />
  </g>
</svg>
